<?xml version="1.0" encoding="utf-8"?><svg width="auto" height="6470" style="overflow:visible " version="1.1" xmlns="http://www.w3.org/2000/svg"><rect x="20" y="20" width="200" height="40" style="fill:white;stroke:black;stroke-width:1" /><text x="30" y="30" font-size="10" style="fill:blue">xs:schema</text><text x="30" y="40" font-size="8" style="fill:black">xmlns: http://www.uniovi.es</text><text x="30" y="50" font-size="8" style="fill:black">elementFormDefault: qualified</text><text x="30" y="60" font-size="8" style="fill:black">targetNamespace: http://www.uniovi.es</text><text x="30" y="70" font-size="8" style="fill:black">xmlns:xs: http://www.w3.org/2001/XMLSchema</text><rect x="240" y="20" width="200" height="40" style="fill:white;stroke:black;stroke-width:1" /><text x="250" y="30" font-size="10" style="fill:blue">xs:element</text><path d="M220 40 C240 40 220 40 240 40" style="fill:transparent;stroke:black" /><text x="250" y="40" font-size="8" style="fill:black">name: circuito</text><rect x="460" y="20" width="200" height="40" style="fill:white;stroke:black;stroke-width:1" /><text x="470" y="30" font-size="10" style="fill:blue">xs:complexType</text><path d="M440 40 C460 40 440 40 460 40" style="fill:transparent;stroke:black" /><rect x="680" y="20" width="200" height="40" style="fill:white;stroke:black;stroke-width:1" /><text x="690" y="30" font-size="10" style="fill:blue">xs:sequence</text><path d="M660 40 C680 40 660 40 680 40" style="fill:transparent;stroke:black" /><rect x="900" y="20" width="200" height="40" style="fill:white;stroke:black;stroke-width:1" /><text x="910" y="30" font-size="10" style="fill:blue">xs:element</text><path d="M880 40 C900 40 880 40 900 40" style="fill:transparent;stroke:black" /><text x="910" y="40" font-size="8" style="fill:black">ref: nombre</text><rect x="900" y="70" width="200" height="40" style="fill:white;stroke:black;stroke-width:1" /><text x="910" y="80" font-size="10" style="fill:blue">xs:element</text><path d="M880 40 C900 40 880 90 900 90" style="fill:transparent;stroke:black" /><text x="910" y="90" font-size="8" style="fill:black">ref: distancia</text><rect x="900" y="120" width="200" height="40" style="fill:white;stroke:black;stroke-width:1" /><text x="910" y="130" font-size="10" style="fill:blue">xs:element</text><path d="M880 40 C900 40 880 140 900 140" style="fill:transparent;stroke:black" /><text x="910" y="140" font-size="8" style="fill:black">ref: anchura</text><rect x="900" y="170" width="200" height="40" style="fill:white;stroke:black;stroke-width:1" /><text x="910" y="180" font-size="10" style="fill:blue">xs:element</text><path d="M880 40 C900 40 880 190 900 190" style="fill:transparent;stroke:black" /><text x="910" y="190" font-size="8" style="fill:black">ref: fecha</text><rect x="900" y="220" width="200" height="40" style="fill:white;stroke:black;stroke-width:1" /><text x="910" y="230" font-size="10" style="fill:blue">xs:element</text><path d="M880 40 C900 40 880 240 900 240" style="fill:transparent;stroke:black" /><text x="910" y="240" font-size="8" style="fill:black">ref: hora_inicio</text><rect x="900" y="270" width="200" height="40" style="fill:white;stroke:black;stroke-width:1" /><text x="910" y="280" font-size="10" style="fill:blue">xs:element</text><path d="M880 40 C900 40 880 290 900 290" style="fill:transparent;stroke:black" /><text x="910" y="290" font-size="8" style="fill:black">ref: vueltas</text><rect x="900" y="320" width="200" height="40" style="fill:white;stroke:black;stroke-width:1" /><text x="910" y="330" font-size="10" style="fill:blue">xs:element</text><path d="M880 40 C900 40 880 340 900 340" style="fill:transparent;stroke:black" /><text x="910" y="340" font-size="8" style="fill:black">ref: localidad</text><rect x="900" y="370" width="200" height="40" style="fill:white;stroke:black;stroke-width:1" /><text x="910" y="380" font-size="10" style="fill:blue">xs:element</text><path d="M880 40 C900 40 880 390 900 390" style="fill:transparent;stroke:black" /><text x="910" y="390" font-size="8" style="fill:black">ref: pais</text><rect x="900" y="420" width="200" height="40" style="fill:white;stroke:black;stroke-width:1" /><text x="910" y="430" font-size="10" style="fill:blue">xs:element</text><path d="M880 40 C900 40 880 440 900 440" style="fill:transparent;stroke:black" /><text x="910" y="440" font-size="8" style="fill:black">ref: patrocinador</text><rect x="900" y="470" width="200" height="40" style="fill:white;stroke:black;stroke-width:1" /><text x="910" y="480" font-size="10" style="fill:blue">xs:element</text><path d="M880 40 C900 40 880 490 900 490" style="fill:transparent;stroke:black" /><text x="910" y="490" font-size="8" style="fill:black">ref: referencias</text><rect x="900" y="520" width="200" height="40" style="fill:white;stroke:black;stroke-width:1" /><text x="910" y="530" font-size="10" style="fill:blue">xs:element</text><path d="M880 40 C900 40 880 540 900 540" style="fill:transparent;stroke:black" /><text x="910" y="540" font-size="8" style="fill:black">ref: galeria</text><rect x="900" y="570" width="200" height="40" style="fill:white;stroke:black;stroke-width:1" /><text x="910" y="580" font-size="10" style="fill:blue">xs:element</text><path d="M880 40 C900 40 880 590 900 590" style="fill:transparent;stroke:black" /><text x="910" y="590" font-size="8" style="fill:black">ref: videos</text><rect x="900" y="620" width="200" height="40" style="fill:white;stroke:black;stroke-width:1" /><text x="910" y="630" font-size="10" style="fill:blue">xs:element</text><path d="M880 40 C900 40 880 640 900 640" style="fill:transparent;stroke:black" /><text x="910" y="640" font-size="8" style="fill:black">ref: coordenadas</text><rect x="900" y="670" width="200" height="40" style="fill:white;stroke:black;stroke-width:1" /><text x="910" y="680" font-size="10" style="fill:blue">xs:element</text><path d="M880 40 C900 40 880 690 900 690" style="fill:transparent;stroke:black" /><text x="910" y="690" font-size="8" style="fill:black">ref: resultado</text><rect x="240" y="870" width="200" height="40" style="fill:white;stroke:black;stroke-width:1" /><text x="250" y="880" font-size="10" style="fill:blue">xs:element</text><path d="M220 40 C240 40 220 890 240 890" style="fill:transparent;stroke:black" /><text x="250" y="890" font-size="8" style="fill:black">name: nombre</text><text x="250" y="900" font-size="8" style="fill:black">type: xs:string</text><rect x="240" y="920" width="200" height="40" style="fill:white;stroke:black;stroke-width:1" /><text x="250" y="930" font-size="10" style="fill:blue">xs:simpleType</text><path d="M220 40 C240 40 220 940 240 940" style="fill:transparent;stroke:black" /><text x="250" y="940" font-size="8" style="fill:black">name: tipoDistancia</text><rect x="460" y="920" width="200" height="40" style="fill:white;stroke:black;stroke-width:1" /><text x="470" y="930" font-size="10" style="fill:blue">xs:restriction</text><path d="M440 940 C460 940 440 940 460 940" style="fill:transparent;stroke:black" /><text x="470" y="940" font-size="8" style="fill:black">base: xs:positiveInteger</text><rect x="680" y="920" width="200" height="40" style="fill:white;stroke:black;stroke-width:1" /><text x="690" y="930" font-size="10" style="fill:blue">xs:maxExclusive</text><path d="M660 940 C680 940 660 940 680 940" style="fill:transparent;stroke:black" /><text x="690" y="940" font-size="8" style="fill:black">value: 20000</text><rect x="240" y="1070" width="200" height="40" style="fill:white;stroke:black;stroke-width:1" /><text x="250" y="1080" font-size="10" style="fill:blue">xs:simpleType</text><path d="M220 40 C240 40 220 1090 240 1090" style="fill:transparent;stroke:black" /><text x="250" y="1090" font-size="8" style="fill:black">name: tipoAnchura</text><rect x="460" y="1070" width="200" height="40" style="fill:white;stroke:black;stroke-width:1" /><text x="470" y="1080" font-size="10" style="fill:blue">xs:restriction</text><path d="M440 1090 C460 1090 440 1090 460 1090" style="fill:transparent;stroke:black" /><text x="470" y="1090" font-size="8" style="fill:black">base: xs:positiveInteger</text><rect x="680" y="1070" width="200" height="40" style="fill:white;stroke:black;stroke-width:1" /><text x="690" y="1080" font-size="10" style="fill:blue">xs:maxExclusive</text><path d="M660 1090 C680 1090 660 1090 680 1090" style="fill:transparent;stroke:black" /><text x="690" y="1090" font-size="8" style="fill:black">value: 200</text><rect x="240" y="1220" width="200" height="40" style="fill:white;stroke:black;stroke-width:1" /><text x="250" y="1230" font-size="10" style="fill:blue">xs:element</text><path d="M220 40 C240 40 220 1240 240 1240" style="fill:transparent;stroke:black" /><text x="250" y="1240" font-size="8" style="fill:black">name: distancia</text><rect x="460" y="1220" width="200" height="40" style="fill:white;stroke:black;stroke-width:1" /><text x="470" y="1230" font-size="10" style="fill:blue">xs:complexType</text><path d="M440 1240 C460 1240 440 1240 460 1240" style="fill:transparent;stroke:black" /><rect x="680" y="1220" width="200" height="40" style="fill:white;stroke:black;stroke-width:1" /><text x="690" y="1230" font-size="10" style="fill:blue">xs:simpleContent</text><path d="M660 1240 C680 1240 660 1240 680 1240" style="fill:transparent;stroke:black" /><rect x="900" y="1220" width="200" height="40" style="fill:white;stroke:black;stroke-width:1" /><text x="910" y="1230" font-size="10" style="fill:blue">xs:extension</text><path d="M880 1240 C900 1240 880 1240 900 1240" style="fill:transparent;stroke:black" /><text x="910" y="1240" font-size="8" style="fill:black">base: tipoDistancia</text><rect x="1120" y="1220" width="200" height="40" style="fill:white;stroke:black;stroke-width:1" /><text x="1130" y="1230" font-size="10" style="fill:blue">xs:attribute</text><path d="M1100 1240 C1120 1240 1100 1240 1120 1240" style="fill:transparent;stroke:black" /><text x="1130" y="1240" font-size="8" style="fill:black">name: unidad</text><text x="1130" y="1250" font-size="8" style="fill:black">type: xs:string</text><text x="1130" y="1260" font-size="8" style="fill:black">use: required</text><rect x="240" y="1470" width="200" height="40" style="fill:white;stroke:black;stroke-width:1" /><text x="250" y="1480" font-size="10" style="fill:blue">xs:element</text><path d="M220 40 C240 40 220 1490 240 1490" style="fill:transparent;stroke:black" /><text x="250" y="1490" font-size="8" style="fill:black">name: anchura</text><rect x="460" y="1470" width="200" height="40" style="fill:white;stroke:black;stroke-width:1" /><text x="470" y="1480" font-size="10" style="fill:blue">xs:complexType</text><path d="M440 1490 C460 1490 440 1490 460 1490" style="fill:transparent;stroke:black" /><rect x="680" y="1470" width="200" height="40" style="fill:white;stroke:black;stroke-width:1" /><text x="690" y="1480" font-size="10" style="fill:blue">xs:simpleContent</text><path d="M660 1490 C680 1490 660 1490 680 1490" style="fill:transparent;stroke:black" /><rect x="900" y="1470" width="200" height="40" style="fill:white;stroke:black;stroke-width:1" /><text x="910" y="1480" font-size="10" style="fill:blue">xs:extension</text><path d="M880 1490 C900 1490 880 1490 900 1490" style="fill:transparent;stroke:black" /><text x="910" y="1490" font-size="8" style="fill:black">base: tipoAnchura</text><rect x="1120" y="1470" width="200" height="40" style="fill:white;stroke:black;stroke-width:1" /><text x="1130" y="1480" font-size="10" style="fill:blue">xs:attribute</text><path d="M1100 1490 C1120 1490 1100 1490 1120 1490" style="fill:transparent;stroke:black" /><text x="1130" y="1490" font-size="8" style="fill:black">name: unidad</text><text x="1130" y="1500" font-size="8" style="fill:black">type: xs:string</text><text x="1130" y="1510" font-size="8" style="fill:black">use: required</text><rect x="240" y="1720" width="200" height="40" style="fill:white;stroke:black;stroke-width:1" /><text x="250" y="1730" font-size="10" style="fill:blue">xs:element</text><path d="M220 40 C240 40 220 1740 240 1740" style="fill:transparent;stroke:black" /><text x="250" y="1740" font-size="8" style="fill:black">name: fecha</text><text x="250" y="1750" font-size="8" style="fill:black">type: xs:date</text><rect x="240" y="1770" width="200" height="40" style="fill:white;stroke:black;stroke-width:1" /><text x="250" y="1780" font-size="10" style="fill:blue">xs:element</text><path d="M220 40 C240 40 220 1790 240 1790" style="fill:transparent;stroke:black" /><text x="250" y="1790" font-size="8" style="fill:black">name: hora_inicio</text><rect x="460" y="1770" width="200" height="40" style="fill:white;stroke:black;stroke-width:1" /><text x="470" y="1780" font-size="10" style="fill:blue">xs:complexType</text><path d="M440 1790 C460 1790 440 1790 460 1790" style="fill:transparent;stroke:black" /><rect x="680" y="1770" width="200" height="40" style="fill:white;stroke:black;stroke-width:1" /><text x="690" y="1780" font-size="10" style="fill:blue">xs:simpleContent</text><path d="M660 1790 C680 1790 660 1790 680 1790" style="fill:transparent;stroke:black" /><rect x="900" y="1770" width="200" height="40" style="fill:white;stroke:black;stroke-width:1" /><text x="910" y="1780" font-size="10" style="fill:blue">xs:extension</text><path d="M880 1790 C900 1790 880 1790 900 1790" style="fill:transparent;stroke:black" /><text x="910" y="1790" font-size="8" style="fill:black">base: xs:time</text><rect x="1120" y="1770" width="200" height="40" style="fill:white;stroke:black;stroke-width:1" /><text x="1130" y="1780" font-size="10" style="fill:blue">xs:attribute</text><path d="M1100 1790 C1120 1790 1100 1790 1120 1790" style="fill:transparent;stroke:black" /><text x="1130" y="1790" font-size="8" style="fill:black">name: zona</text><text x="1130" y="1800" font-size="8" style="fill:black">type: xs:string</text><text x="1130" y="1810" font-size="8" style="fill:black">use: required</text><rect x="240" y="2020" width="200" height="40" style="fill:white;stroke:black;stroke-width:1" /><text x="250" y="2030" font-size="10" style="fill:blue">xs:element</text><path d="M220 40 C240 40 220 2040 240 2040" style="fill:transparent;stroke:black" /><text x="250" y="2040" font-size="8" style="fill:black">name: vueltas</text><text x="250" y="2050" font-size="8" style="fill:black">type: xs:positiveInteger</text><rect x="240" y="2070" width="200" height="40" style="fill:white;stroke:black;stroke-width:1" /><text x="250" y="2080" font-size="10" style="fill:blue">xs:element</text><path d="M220 40 C240 40 220 2090 240 2090" style="fill:transparent;stroke:black" /><text x="250" y="2090" font-size="8" style="fill:black">name: localidad</text><text x="250" y="2100" font-size="8" style="fill:black">type: xs:string</text><rect x="240" y="2120" width="200" height="40" style="fill:white;stroke:black;stroke-width:1" /><text x="250" y="2130" font-size="10" style="fill:blue">xs:element</text><path d="M220 40 C240 40 220 2140 240 2140" style="fill:transparent;stroke:black" /><text x="250" y="2140" font-size="8" style="fill:black">name: pais</text><text x="250" y="2150" font-size="8" style="fill:black">type: xs:string</text><rect x="240" y="2170" width="200" height="40" style="fill:white;stroke:black;stroke-width:1" /><text x="250" y="2180" font-size="10" style="fill:blue">xs:element</text><path d="M220 40 C240 40 220 2190 240 2190" style="fill:transparent;stroke:black" /><text x="250" y="2190" font-size="8" style="fill:black">name: patrocinador</text><text x="250" y="2200" font-size="8" style="fill:black">type: xs:string</text><rect x="240" y="2220" width="200" height="40" style="fill:white;stroke:black;stroke-width:1" /><text x="250" y="2230" font-size="10" style="fill:blue">xs:element</text><path d="M220 40 C240 40 220 2240 240 2240" style="fill:transparent;stroke:black" /><text x="250" y="2240" font-size="8" style="fill:black">name: referencias</text><rect x="460" y="2220" width="200" height="40" style="fill:white;stroke:black;stroke-width:1" /><text x="470" y="2230" font-size="10" style="fill:blue">xs:complexType</text><path d="M440 2240 C460 2240 440 2240 460 2240" style="fill:transparent;stroke:black" /><rect x="680" y="2220" width="200" height="40" style="fill:white;stroke:black;stroke-width:1" /><text x="690" y="2230" font-size="10" style="fill:blue">xs:sequence</text><path d="M660 2240 C680 2240 660 2240 680 2240" style="fill:transparent;stroke:black" /><rect x="900" y="2220" width="200" height="40" style="fill:white;stroke:black;stroke-width:1" /><text x="910" y="2230" font-size="10" style="fill:blue">xs:element</text><path d="M880 2240 C900 2240 880 2240 900 2240" style="fill:transparent;stroke:black" /><text x="910" y="2240" font-size="8" style="fill:black">minOccurs: 3</text><text x="910" y="2250" font-size="8" style="fill:black">maxOccurs: unbounded</text><text x="910" y="2260" font-size="8" style="fill:black">ref: referencia</text><rect x="240" y="2420" width="200" height="40" style="fill:white;stroke:black;stroke-width:1" /><text x="250" y="2430" font-size="10" style="fill:blue">xs:element</text><path d="M220 40 C240 40 220 2440 240 2440" style="fill:transparent;stroke:black" /><text x="250" y="2440" font-size="8" style="fill:black">name: referencia</text><text x="250" y="2450" font-size="8" style="fill:black">type: xs:string</text><rect x="240" y="2470" width="200" height="40" style="fill:white;stroke:black;stroke-width:1" /><text x="250" y="2480" font-size="10" style="fill:blue">xs:element</text><path d="M220 40 C240 40 220 2490 240 2490" style="fill:transparent;stroke:black" /><text x="250" y="2490" font-size="8" style="fill:black">name: galeria</text><rect x="460" y="2470" width="200" height="40" style="fill:white;stroke:black;stroke-width:1" /><text x="470" y="2480" font-size="10" style="fill:blue">xs:complexType</text><path d="M440 2490 C460 2490 440 2490 460 2490" style="fill:transparent;stroke:black" /><rect x="680" y="2470" width="200" height="40" style="fill:white;stroke:black;stroke-width:1" /><text x="690" y="2480" font-size="10" style="fill:blue">xs:sequence</text><path d="M660 2490 C680 2490 660 2490 680 2490" style="fill:transparent;stroke:black" /><rect x="900" y="2470" width="200" height="40" style="fill:white;stroke:black;stroke-width:1" /><text x="910" y="2480" font-size="10" style="fill:blue">xs:element</text><path d="M880 2490 C900 2490 880 2490 900 2490" style="fill:transparent;stroke:black" /><text x="910" y="2490" font-size="8" style="fill:black">minOccurs: 3</text><text x="910" y="2500" font-size="8" style="fill:black">maxOccurs: 5</text><text x="910" y="2510" font-size="8" style="fill:black">ref: foto</text><rect x="240" y="2670" width="200" height="40" style="fill:white;stroke:black;stroke-width:1" /><text x="250" y="2680" font-size="10" style="fill:blue">xs:element</text><path d="M220 40 C240 40 220 2690 240 2690" style="fill:transparent;stroke:black" /><text x="250" y="2690" font-size="8" style="fill:black">name: foto</text><rect x="460" y="2670" width="200" height="40" style="fill:white;stroke:black;stroke-width:1" /><text x="470" y="2680" font-size="10" style="fill:blue">xs:complexType</text><path d="M440 2690 C460 2690 440 2690 460 2690" style="fill:transparent;stroke:black" /><rect x="680" y="2670" width="200" height="40" style="fill:white;stroke:black;stroke-width:1" /><text x="690" y="2680" font-size="10" style="fill:blue">xs:attribute</text><path d="M660 2690 C680 2690 660 2690 680 2690" style="fill:transparent;stroke:black" /><text x="690" y="2690" font-size="8" style="fill:black">name: nombre</text><text x="690" y="2700" font-size="8" style="fill:black">type: xs:string</text><text x="690" y="2710" font-size="8" style="fill:black">use: required</text><rect x="240" y="2820" width="200" height="40" style="fill:white;stroke:black;stroke-width:1" /><text x="250" y="2830" font-size="10" style="fill:blue">xs:element</text><path d="M220 40 C240 40 220 2840 240 2840" style="fill:transparent;stroke:black" /><text x="250" y="2840" font-size="8" style="fill:black">name: videos</text><rect x="460" y="2820" width="200" height="40" style="fill:white;stroke:black;stroke-width:1" /><text x="470" y="2830" font-size="10" style="fill:blue">xs:complexType</text><path d="M440 2840 C460 2840 440 2840 460 2840" style="fill:transparent;stroke:black" /><rect x="680" y="2820" width="200" height="40" style="fill:white;stroke:black;stroke-width:1" /><text x="690" y="2830" font-size="10" style="fill:blue">xs:sequence</text><path d="M660 2840 C680 2840 660 2840 680 2840" style="fill:transparent;stroke:black" /><rect x="900" y="2820" width="200" height="40" style="fill:white;stroke:black;stroke-width:1" /><text x="910" y="2830" font-size="10" style="fill:blue">xs:element</text><path d="M880 2840 C900 2840 880 2840 900 2840" style="fill:transparent;stroke:black" /><text x="910" y="2840" font-size="8" style="fill:black">minOccurs: 1</text><text x="910" y="2850" font-size="8" style="fill:black">maxOccurs: unbounded</text><text x="910" y="2860" font-size="8" style="fill:black">ref: video</text><rect x="240" y="3020" width="200" height="40" style="fill:white;stroke:black;stroke-width:1" /><text x="250" y="3030" font-size="10" style="fill:blue">xs:element</text><path d="M220 40 C240 40 220 3040 240 3040" style="fill:transparent;stroke:black" /><text x="250" y="3040" font-size="8" style="fill:black">name: video</text><rect x="460" y="3020" width="200" height="40" style="fill:white;stroke:black;stroke-width:1" /><text x="470" y="3030" font-size="10" style="fill:blue">xs:complexType</text><path d="M440 3040 C460 3040 440 3040 460 3040" style="fill:transparent;stroke:black" /><rect x="680" y="3020" width="200" height="40" style="fill:white;stroke:black;stroke-width:1" /><text x="690" y="3030" font-size="10" style="fill:blue">xs:attribute</text><path d="M660 3040 C680 3040 660 3040 680 3040" style="fill:transparent;stroke:black" /><text x="690" y="3040" font-size="8" style="fill:black">name: nombre</text><text x="690" y="3050" font-size="8" style="fill:black">type: xs:string</text><text x="690" y="3060" font-size="8" style="fill:black">use: required</text><rect x="680" y="3070" width="200" height="40" style="fill:white;stroke:black;stroke-width:1" /><text x="690" y="3080" font-size="10" style="fill:blue">xs:attribute</text><path d="M660 3040 C680 3040 660 3090 680 3090" style="fill:transparent;stroke:black" /><text x="690" y="3090" font-size="8" style="fill:black">name: descripcion</text><text x="690" y="3100" font-size="8" style="fill:black">type: xs:string</text><text x="690" y="3110" font-size="8" style="fill:black">use: required</text><rect x="240" y="3220" width="200" height="40" style="fill:white;stroke:black;stroke-width:1" /><text x="250" y="3230" font-size="10" style="fill:blue">xs:element</text><path d="M220 40 C240 40 220 3240 240 3240" style="fill:transparent;stroke:black" /><text x="250" y="3240" font-size="8" style="fill:black">name: coordenadas</text><rect x="460" y="3220" width="200" height="40" style="fill:white;stroke:black;stroke-width:1" /><text x="470" y="3230" font-size="10" style="fill:blue">xs:complexType</text><path d="M440 3240 C460 3240 440 3240 460 3240" style="fill:transparent;stroke:black" /><rect x="680" y="3220" width="200" height="40" style="fill:white;stroke:black;stroke-width:1" /><text x="690" y="3230" font-size="10" style="fill:blue">xs:sequence</text><path d="M660 3240 C680 3240 660 3240 680 3240" style="fill:transparent;stroke:black" /><rect x="900" y="3220" width="200" height="40" style="fill:white;stroke:black;stroke-width:1" /><text x="910" y="3230" font-size="10" style="fill:blue">xs:element</text><path d="M880 3240 C900 3240 880 3240 900 3240" style="fill:transparent;stroke:black" /><text x="910" y="3240" font-size="8" style="fill:black">ref: origen</text><rect x="900" y="3270" width="200" height="40" style="fill:white;stroke:black;stroke-width:1" /><text x="910" y="3280" font-size="10" style="fill:blue">xs:element</text><path d="M880 3240 C900 3240 880 3290 900 3290" style="fill:transparent;stroke:black" /><text x="910" y="3290" font-size="8" style="fill:black">ref: tramos</text><rect x="240" y="3470" width="200" height="40" style="fill:white;stroke:black;stroke-width:1" /><text x="250" y="3480" font-size="10" style="fill:blue">xs:element</text><path d="M220 40 C240 40 220 3490 240 3490" style="fill:transparent;stroke:black" /><text x="250" y="3490" font-size="8" style="fill:black">name: origen</text><rect x="460" y="3470" width="200" height="40" style="fill:white;stroke:black;stroke-width:1" /><text x="470" y="3480" font-size="10" style="fill:blue">xs:complexType</text><path d="M440 3490 C460 3490 440 3490 460 3490" style="fill:transparent;stroke:black" /><rect x="680" y="3470" width="200" height="40" style="fill:white;stroke:black;stroke-width:1" /><text x="690" y="3480" font-size="10" style="fill:blue">xs:sequence</text><path d="M660 3490 C680 3490 660 3490 680 3490" style="fill:transparent;stroke:black" /><rect x="900" y="3470" width="200" height="40" style="fill:white;stroke:black;stroke-width:1" /><text x="910" y="3480" font-size="10" style="fill:blue">xs:element</text><path d="M880 3490 C900 3490 880 3490 900 3490" style="fill:transparent;stroke:black" /><text x="910" y="3490" font-size="8" style="fill:black">ref: latitud</text><rect x="900" y="3520" width="200" height="40" style="fill:white;stroke:black;stroke-width:1" /><text x="910" y="3530" font-size="10" style="fill:blue">xs:element</text><path d="M880 3490 C900 3490 880 3540 900 3540" style="fill:transparent;stroke:black" /><text x="910" y="3540" font-size="8" style="fill:black">ref: longitud</text><rect x="900" y="3570" width="200" height="40" style="fill:white;stroke:black;stroke-width:1" /><text x="910" y="3580" font-size="10" style="fill:blue">xs:element</text><path d="M880 3490 C900 3490 880 3590 900 3590" style="fill:transparent;stroke:black" /><text x="910" y="3590" font-size="8" style="fill:black">ref: altitud</text><rect x="240" y="3770" width="200" height="40" style="fill:white;stroke:black;stroke-width:1" /><text x="250" y="3780" font-size="10" style="fill:blue">xs:element</text><path d="M220 40 C240 40 220 3790 240 3790" style="fill:transparent;stroke:black" /><text x="250" y="3790" font-size="8" style="fill:black">name: latitud</text><rect x="460" y="3770" width="200" height="40" style="fill:white;stroke:black;stroke-width:1" /><text x="470" y="3780" font-size="10" style="fill:blue">xs:simpleType</text><path d="M440 3790 C460 3790 440 3790 460 3790" style="fill:transparent;stroke:black" /><rect x="680" y="3770" width="200" height="40" style="fill:white;stroke:black;stroke-width:1" /><text x="690" y="3780" font-size="10" style="fill:blue">xs:restriction</text><path d="M660 3790 C680 3790 660 3790 680 3790" style="fill:transparent;stroke:black" /><text x="690" y="3790" font-size="8" style="fill:black">base: xs:decimal</text><rect x="900" y="3770" width="200" height="40" style="fill:white;stroke:black;stroke-width:1" /><text x="910" y="3780" font-size="10" style="fill:blue">xs:minInclusive</text><path d="M880 3790 C900 3790 880 3790 900 3790" style="fill:transparent;stroke:black" /><text x="910" y="3790" font-size="8" style="fill:black">value: -90</text><rect x="900" y="3820" width="200" height="40" style="fill:white;stroke:black;stroke-width:1" /><text x="910" y="3830" font-size="10" style="fill:blue">xs:maxInclusive</text><path d="M880 3790 C900 3790 880 3840 900 3840" style="fill:transparent;stroke:black" /><text x="910" y="3840" font-size="8" style="fill:black">value: 90</text><rect x="240" y="4020" width="200" height="40" style="fill:white;stroke:black;stroke-width:1" /><text x="250" y="4030" font-size="10" style="fill:blue">xs:element</text><path d="M220 40 C240 40 220 4040 240 4040" style="fill:transparent;stroke:black" /><text x="250" y="4040" font-size="8" style="fill:black">name: longitud</text><rect x="460" y="4020" width="200" height="40" style="fill:white;stroke:black;stroke-width:1" /><text x="470" y="4030" font-size="10" style="fill:blue">xs:simpleType</text><path d="M440 4040 C460 4040 440 4040 460 4040" style="fill:transparent;stroke:black" /><rect x="680" y="4020" width="200" height="40" style="fill:white;stroke:black;stroke-width:1" /><text x="690" y="4030" font-size="10" style="fill:blue">xs:restriction</text><path d="M660 4040 C680 4040 660 4040 680 4040" style="fill:transparent;stroke:black" /><text x="690" y="4040" font-size="8" style="fill:black">base: xs:decimal</text><rect x="900" y="4020" width="200" height="40" style="fill:white;stroke:black;stroke-width:1" /><text x="910" y="4030" font-size="10" style="fill:blue">xs:minInclusive</text><path d="M880 4040 C900 4040 880 4040 900 4040" style="fill:transparent;stroke:black" /><text x="910" y="4040" font-size="8" style="fill:black">value: -180</text><rect x="900" y="4070" width="200" height="40" style="fill:white;stroke:black;stroke-width:1" /><text x="910" y="4080" font-size="10" style="fill:blue">xs:maxInclusive</text><path d="M880 4040 C900 4040 880 4090 900 4090" style="fill:transparent;stroke:black" /><text x="910" y="4090" font-size="8" style="fill:black">value: 180</text><rect x="240" y="4270" width="200" height="40" style="fill:white;stroke:black;stroke-width:1" /><text x="250" y="4280" font-size="10" style="fill:blue">xs:element</text><path d="M220 40 C240 40 220 4290 240 4290" style="fill:transparent;stroke:black" /><text x="250" y="4290" font-size="8" style="fill:black">name: altitud</text><rect x="460" y="4270" width="200" height="40" style="fill:white;stroke:black;stroke-width:1" /><text x="470" y="4280" font-size="10" style="fill:blue">xs:simpleType</text><path d="M440 4290 C460 4290 440 4290 460 4290" style="fill:transparent;stroke:black" /><rect x="680" y="4270" width="200" height="40" style="fill:white;stroke:black;stroke-width:1" /><text x="690" y="4280" font-size="10" style="fill:blue">xs:restriction</text><path d="M660 4290 C680 4290 660 4290 680 4290" style="fill:transparent;stroke:black" /><text x="690" y="4290" font-size="8" style="fill:black">base: xs:decimal</text><rect x="900" y="4270" width="200" height="40" style="fill:white;stroke:black;stroke-width:1" /><text x="910" y="4280" font-size="10" style="fill:blue">xs:minInclusive</text><path d="M880 4290 C900 4290 880 4290 900 4290" style="fill:transparent;stroke:black" /><text x="910" y="4290" font-size="8" style="fill:black">value: 0</text><rect x="900" y="4320" width="200" height="40" style="fill:white;stroke:black;stroke-width:1" /><text x="910" y="4330" font-size="10" style="fill:blue">xs:maxInclusive</text><path d="M880 4290 C900 4290 880 4340 900 4340" style="fill:transparent;stroke:black" /><text x="910" y="4340" font-size="8" style="fill:black">value: 5000</text><rect x="240" y="4520" width="200" height="40" style="fill:white;stroke:black;stroke-width:1" /><text x="250" y="4530" font-size="10" style="fill:blue">xs:element</text><path d="M220 40 C240 40 220 4540 240 4540" style="fill:transparent;stroke:black" /><text x="250" y="4540" font-size="8" style="fill:black">name: tramos</text><rect x="460" y="4520" width="200" height="40" style="fill:white;stroke:black;stroke-width:1" /><text x="470" y="4530" font-size="10" style="fill:blue">xs:complexType</text><path d="M440 4540 C460 4540 440 4540 460 4540" style="fill:transparent;stroke:black" /><rect x="680" y="4520" width="200" height="40" style="fill:white;stroke:black;stroke-width:1" /><text x="690" y="4530" font-size="10" style="fill:blue">xs:sequence</text><path d="M660 4540 C680 4540 660 4540 680 4540" style="fill:transparent;stroke:black" /><rect x="900" y="4520" width="200" height="40" style="fill:white;stroke:black;stroke-width:1" /><text x="910" y="4530" font-size="10" style="fill:blue">xs:element</text><path d="M880 4540 C900 4540 880 4540 900 4540" style="fill:transparent;stroke:black" /><text x="910" y="4540" font-size="8" style="fill:black">minOccurs: 1</text><text x="910" y="4550" font-size="8" style="fill:black">maxOccurs: unbounded</text><text x="910" y="4560" font-size="8" style="fill:black">ref: tramo</text><rect x="240" y="4720" width="200" height="40" style="fill:white;stroke:black;stroke-width:1" /><text x="250" y="4730" font-size="10" style="fill:blue">xs:element</text><path d="M220 40 C240 40 220 4740 240 4740" style="fill:transparent;stroke:black" /><text x="250" y="4740" font-size="8" style="fill:black">name: tramo</text><rect x="460" y="4720" width="200" height="40" style="fill:white;stroke:black;stroke-width:1" /><text x="470" y="4730" font-size="10" style="fill:blue">xs:complexType</text><path d="M440 4740 C460 4740 440 4740 460 4740" style="fill:transparent;stroke:black" /><rect x="680" y="4720" width="200" height="40" style="fill:white;stroke:black;stroke-width:1" /><text x="690" y="4730" font-size="10" style="fill:blue">xs:sequence</text><path d="M660 4740 C680 4740 660 4740 680 4740" style="fill:transparent;stroke:black" /><rect x="900" y="4720" width="200" height="40" style="fill:white;stroke:black;stroke-width:1" /><text x="910" y="4730" font-size="10" style="fill:blue">xs:element</text><path d="M880 4740 C900 4740 880 4740 900 4740" style="fill:transparent;stroke:black" /><text x="910" y="4740" font-size="8" style="fill:black">ref: distancia</text><rect x="900" y="4770" width="200" height="40" style="fill:white;stroke:black;stroke-width:1" /><text x="910" y="4780" font-size="10" style="fill:blue">xs:element</text><path d="M880 4740 C900 4740 880 4790 900 4790" style="fill:transparent;stroke:black" /><text x="910" y="4790" font-size="8" style="fill:black">ref: coordenadas_finales</text><rect x="900" y="4820" width="200" height="40" style="fill:white;stroke:black;stroke-width:1" /><text x="910" y="4830" font-size="10" style="fill:blue">xs:element</text><path d="M880 4740 C900 4740 880 4840 900 4840" style="fill:transparent;stroke:black" /><text x="910" y="4840" font-size="8" style="fill:black">ref: sector</text><rect x="240" y="5020" width="200" height="40" style="fill:white;stroke:black;stroke-width:1" /><text x="250" y="5030" font-size="10" style="fill:blue">xs:element</text><path d="M220 40 C240 40 220 5040 240 5040" style="fill:transparent;stroke:black" /><text x="250" y="5040" font-size="8" style="fill:black">name: coordenadas_finales</text><rect x="460" y="5020" width="200" height="40" style="fill:white;stroke:black;stroke-width:1" /><text x="470" y="5030" font-size="10" style="fill:blue">xs:complexType</text><path d="M440 5040 C460 5040 440 5040 460 5040" style="fill:transparent;stroke:black" /><rect x="680" y="5020" width="200" height="40" style="fill:white;stroke:black;stroke-width:1" /><text x="690" y="5030" font-size="10" style="fill:blue">xs:sequence</text><path d="M660 5040 C680 5040 660 5040 680 5040" style="fill:transparent;stroke:black" /><rect x="900" y="5020" width="200" height="40" style="fill:white;stroke:black;stroke-width:1" /><text x="910" y="5030" font-size="10" style="fill:blue">xs:element</text><path d="M880 5040 C900 5040 880 5040 900 5040" style="fill:transparent;stroke:black" /><text x="910" y="5040" font-size="8" style="fill:black">ref: latitud</text><rect x="900" y="5070" width="200" height="40" style="fill:white;stroke:black;stroke-width:1" /><text x="910" y="5080" font-size="10" style="fill:blue">xs:element</text><path d="M880 5040 C900 5040 880 5090 900 5090" style="fill:transparent;stroke:black" /><text x="910" y="5090" font-size="8" style="fill:black">ref: longitud</text><rect x="900" y="5120" width="200" height="40" style="fill:white;stroke:black;stroke-width:1" /><text x="910" y="5130" font-size="10" style="fill:blue">xs:element</text><path d="M880 5040 C900 5040 880 5140 900 5140" style="fill:transparent;stroke:black" /><text x="910" y="5140" font-size="8" style="fill:black">ref: altitud</text><rect x="240" y="5320" width="200" height="40" style="fill:white;stroke:black;stroke-width:1" /><text x="250" y="5330" font-size="10" style="fill:blue">xs:element</text><path d="M220 40 C240 40 220 5340 240 5340" style="fill:transparent;stroke:black" /><text x="250" y="5340" font-size="8" style="fill:black">name: sector</text><rect x="460" y="5320" width="200" height="40" style="fill:white;stroke:black;stroke-width:1" /><text x="470" y="5330" font-size="10" style="fill:blue">xs:complexType</text><path d="M440 5340 C460 5340 440 5340 460 5340" style="fill:transparent;stroke:black" /><rect x="680" y="5320" width="200" height="40" style="fill:white;stroke:black;stroke-width:1" /><text x="690" y="5330" font-size="10" style="fill:blue">xs:attribute</text><path d="M660 5340 C680 5340 660 5340 680 5340" style="fill:transparent;stroke:black" /><text x="690" y="5340" font-size="8" style="fill:black">name: numero</text><text x="690" y="5350" font-size="8" style="fill:black">type: xs:positiveInteger</text><text x="690" y="5360" font-size="8" style="fill:black">use: required</text><rect x="240" y="5470" width="200" height="40" style="fill:white;stroke:black;stroke-width:1" /><text x="250" y="5480" font-size="10" style="fill:blue">xs:element</text><path d="M220 40 C240 40 220 5490 240 5490" style="fill:transparent;stroke:black" /><text x="250" y="5490" font-size="8" style="fill:black">name: resultado</text><rect x="460" y="5470" width="200" height="40" style="fill:white;stroke:black;stroke-width:1" /><text x="470" y="5480" font-size="10" style="fill:blue">xs:complexType</text><path d="M440 5490 C460 5490 440 5490 460 5490" style="fill:transparent;stroke:black" /><rect x="680" y="5470" width="200" height="40" style="fill:white;stroke:black;stroke-width:1" /><text x="690" y="5480" font-size="10" style="fill:blue">xs:sequence</text><path d="M660 5490 C680 5490 660 5490 680 5490" style="fill:transparent;stroke:black" /><rect x="900" y="5470" width="200" height="40" style="fill:white;stroke:black;stroke-width:1" /><text x="910" y="5480" font-size="10" style="fill:blue">xs:element</text><path d="M880 5490 C900 5490 880 5490 900 5490" style="fill:transparent;stroke:black" /><text x="910" y="5490" font-size="8" style="fill:black">ref: vencedor</text><rect x="900" y="5520" width="200" height="40" style="fill:white;stroke:black;stroke-width:1" /><text x="910" y="5530" font-size="10" style="fill:blue">xs:element</text><path d="M880 5490 C900 5490 880 5540 900 5540" style="fill:transparent;stroke:black" /><text x="910" y="5540" font-size="8" style="fill:black">ref: clasificacion_mundial</text><rect x="240" y="5720" width="200" height="40" style="fill:white;stroke:black;stroke-width:1" /><text x="250" y="5730" font-size="10" style="fill:blue">xs:element</text><path d="M220 40 C240 40 220 5740 240 5740" style="fill:transparent;stroke:black" /><text x="250" y="5740" font-size="8" style="fill:black">name: vencedor</text><rect x="460" y="5720" width="200" height="40" style="fill:white;stroke:black;stroke-width:1" /><text x="470" y="5730" font-size="10" style="fill:blue">xs:complexType</text><path d="M440 5740 C460 5740 440 5740 460 5740" style="fill:transparent;stroke:black" /><rect x="680" y="5720" width="200" height="40" style="fill:white;stroke:black;stroke-width:1" /><text x="690" y="5730" font-size="10" style="fill:blue">xs:simpleContent</text><path d="M660 5740 C680 5740 660 5740 680 5740" style="fill:transparent;stroke:black" /><rect x="900" y="5720" width="200" height="40" style="fill:white;stroke:black;stroke-width:1" /><text x="910" y="5730" font-size="10" style="fill:blue">xs:extension</text><path d="M880 5740 C900 5740 880 5740 900 5740" style="fill:transparent;stroke:black" /><text x="910" y="5740" font-size="8" style="fill:black">base: xs:string</text><rect x="1120" y="5720" width="200" height="40" style="fill:white;stroke:black;stroke-width:1" /><text x="1130" y="5730" font-size="10" style="fill:blue">xs:attribute</text><path d="M1100 5740 C1120 5740 1100 5740 1120 5740" style="fill:transparent;stroke:black" /><text x="1130" y="5740" font-size="8" style="fill:black">name: tiempo</text><text x="1130" y="5750" font-size="8" style="fill:black">type: xs:duration</text><text x="1130" y="5760" font-size="8" style="fill:black">use: required</text><rect x="240" y="5970" width="200" height="40" style="fill:white;stroke:black;stroke-width:1" /><text x="250" y="5980" font-size="10" style="fill:blue">xs:element</text><path d="M220 40 C240 40 220 5990 240 5990" style="fill:transparent;stroke:black" /><text x="250" y="5990" font-size="8" style="fill:black">name: clasificacion_mundial</text><rect x="460" y="5970" width="200" height="40" style="fill:white;stroke:black;stroke-width:1" /><text x="470" y="5980" font-size="10" style="fill:blue">xs:complexType</text><path d="M440 5990 C460 5990 440 5990 460 5990" style="fill:transparent;stroke:black" /><rect x="680" y="5970" width="200" height="40" style="fill:white;stroke:black;stroke-width:1" /><text x="690" y="5980" font-size="10" style="fill:blue">xs:sequence</text><path d="M660 5990 C680 5990 660 5990 680 5990" style="fill:transparent;stroke:black" /><rect x="900" y="5970" width="200" height="40" style="fill:white;stroke:black;stroke-width:1" /><text x="910" y="5980" font-size="10" style="fill:blue">xs:element</text><path d="M880 5990 C900 5990 880 5990 900 5990" style="fill:transparent;stroke:black" /><text x="910" y="5990" font-size="8" style="fill:black">minOccurs: 1</text><text x="910" y="6000" font-size="8" style="fill:black">maxOccurs: unbounded</text><text x="910" y="6010" font-size="8" style="fill:black">ref: puesto</text><rect x="240" y="6170" width="200" height="40" style="fill:white;stroke:black;stroke-width:1" /><text x="250" y="6180" font-size="10" style="fill:blue">xs:element</text><path d="M220 40 C240 40 220 6190 240 6190" style="fill:transparent;stroke:black" /><text x="250" y="6190" font-size="8" style="fill:black">name: puesto</text><rect x="460" y="6170" width="200" height="40" style="fill:white;stroke:black;stroke-width:1" /><text x="470" y="6180" font-size="10" style="fill:blue">xs:complexType</text><path d="M440 6190 C460 6190 440 6190 460 6190" style="fill:transparent;stroke:black" /><rect x="680" y="6170" width="200" height="40" style="fill:white;stroke:black;stroke-width:1" /><text x="690" y="6180" font-size="10" style="fill:blue">xs:simpleContent</text><path d="M660 6190 C680 6190 660 6190 680 6190" style="fill:transparent;stroke:black" /><rect x="900" y="6170" width="200" height="40" style="fill:white;stroke:black;stroke-width:1" /><text x="910" y="6180" font-size="10" style="fill:blue">xs:extension</text><path d="M880 6190 C900 6190 880 6190 900 6190" style="fill:transparent;stroke:black" /><text x="910" y="6190" font-size="8" style="fill:black">base: xs:string</text><rect x="1120" y="6170" width="200" height="40" style="fill:white;stroke:black;stroke-width:1" /><text x="1130" y="6180" font-size="10" style="fill:blue">xs:attribute</text><path d="M1100 6190 C1120 6190 1100 6190 1120 6190" style="fill:transparent;stroke:black" /><text x="1130" y="6190" font-size="8" style="fill:black">name: numero</text><text x="1130" y="6200" font-size="8" style="fill:black">type: xs:positiveInteger</text><text x="1130" y="6210" font-size="8" style="fill:black">use: required</text></svg>