<?xml version='1.0' encoding='utf-8'?>
<svg xmlns="http://www.w3.org/2000/svg" version="2.0" viewBox="0 0 800 350" width="800" height="350">
  <line x1="60" y1="60" x2="60" y2="240.0" stroke="black" stroke-width="1" />
  <line x1="60" y1="240.0" x2="740" y2="240.0" stroke="black" stroke-width="1" />
  <polyline points="60.00,240.00 60.00,190.34 162.48,240.00 167.45,233.79 175.80,233.79 181.21,227.59 198.64,196.55 206.98,177.93 217.67,165.52 227.47,153.10 238.60,146.90 246.95,140.69 286.91,122.07 292.62,115.86 298.04,115.86 303.31,109.66 308.28,109.66 315.90,109.66 346.93,140.69 350.45,146.90 353.52,153.10 356.74,159.31 379.43,215.17 391.14,227.59 412.66,215.17 417.05,208.97 424.67,190.34 430.38,177.93 458.48,103.45 464.19,97.24 471.51,91.03 476.64,91.03 539.73,122.07 549.69,128.28 553.64,122.07 557.15,122.07 561.55,122.07 566.52,115.86 570.91,109.66 575.31,103.45 586.29,84.83 590.82,72.41 595.66,66.21 599.75,60.00 605.17,60.00 631.23,78.62 637.09,84.83 641.92,97.24 670.02,153.10 676.03,159.31 681.88,165.52 686.86,171.72 740.00,190.34 740.00,240.00 60.00,240.00" stroke="red" fill="none" stroke-width="2.5" />
  <text x="20" y="150.0" font-family="Verdana" font-size="14" style="writing-mode: tb; glyph-orientation-vertical: 0; text-anchor: middle; dominant-baseline: middle;">Altitud (m)</text>
  <text x="50" y="240.0" font-family="Verdana" font-size="14" style="writing-mode: tb; glyph-orientation-vertical: 0; text-anchor: end; dominant-baseline: middle;">112 m</text>
  <text x="50" y="60.0" font-family="Verdana" font-size="14" style="writing-mode: tb; glyph-orientation-vertical: 0; text-anchor: end; dominant-baseline: middle;">141 m</text>
  <text x="60.0" y="250.0" font-family="sans-serif" font-size="12" style="writing-mode: tb; glyph-orientation-vertical: 0; text-anchor: start;">Sector 1</text>
  <text x="198.63509149623252" y="250.0" font-family="sans-serif" font-size="12" style="writing-mode: tb; glyph-orientation-vertical: 0; text-anchor: start;">Sector 2</text>
  <text x="379.4316469321851" y="250.0" font-family="sans-serif" font-size="12" style="writing-mode: tb; glyph-orientation-vertical: 0; text-anchor: start;">Sector 3</text>
  <text x="539.7330462863295" y="250.0" font-family="sans-serif" font-size="12" style="writing-mode: tb; glyph-orientation-vertical: 0; text-anchor: start;">Sector 4</text>
  <text x="740.0" y="250.0" font-family="sans-serif" font-size="14" style="writing-mode: tb; glyph-orientation-vertical: 0; text-anchor: start;">Final</text>
</svg>